<svg xmlns="http://www.w3.org/2000/svg" viewBox="0 0 200 200">
  
    <defs>
      <linearGradient id="bg" x1="0%" y1="0%" x2="100%" y2="100%">
        <stop offset="0%" style="stop-color:#4682b4;stop-opacity:0.3" />
        <stop offset="100%" style="stop-color:#1a1a2e;stop-opacity:1" />
      </linearGradient>
      <linearGradient id="skin" x1="0%" y1="0%" x2="100%" y2="100%">
        <stop offset="0%" style="stop-color:#f5e6d3;stop-opacity:1" />
        <stop offset="100%" style="stop-color:#d7c8b5;stop-opacity:1" />
      </linearGradient>
      <filter id="shadow" x="-20%" y="-20%" width="140%" height="140%">
        <feDropShadow dx="2" dy="2" stdDeviation="3" flood-color="#000" flood-opacity="0.5"/>
      </filter>
      
    </defs>
  
  <!-- Background -->
  <rect width="200" height="200" fill="url(#bg)"/>
  
  <!-- Aura Effect -->
  
  
  <!-- Body/Shoulders -->
  
      <path d="M50 165 Q45 175 40 200 L160 200 Q155 175 150 165 Q125 155 100 158 Q75 155 50 165" fill="#696969"/>
      <path d="M55 168 Q100 160 145 168 Q140 175 100 172 Q60 175 55 168" fill="#c0c0c0"/>
      <path d="M70 175 L70 200" stroke="#d3d3d3" stroke-width="2"/>
      <path d="M130 175 L130 200" stroke="#d3d3d3" stroke-width="2"/>
      <circle cx="100" cy="178" r="8" fill="#4682b4" stroke="#d3d3d3" stroke-width="1"/>
  
  <!-- Neck -->
  <path d="M85 150 Q100 145 115 150 L115 165 Q100 160 85 165 Z" fill="url(#skin)" filter="url(#shadow)"/>
  
  <!-- Ears (behind head) -->
  
        <path d="M58 88 Q50 75 48 65 Q55 75 60 85" fill="url(#skin)" stroke="#e1d2bf" stroke-width="1"/>
        <path d="M142 88 Q150 75 152 65 Q145 75 140 85" fill="url(#skin)" stroke="#e1d2bf" stroke-width="1"/>
  
  <!-- Face -->
  <ellipse cx="100" cy="100" rx="40" ry="42" fill="url(#skin)" filter="url(#shadow)"/>
  
  <!-- Special Features (behind face details) -->
  
  
  <!-- Hair -->
  
    <ellipse cx="100" cy="60" rx="42" ry="25" fill="#f0f0f0"/>
    <path d="M58 70 Q60 50 100 45 Q140 50 142 70" fill="#f0f0f0"/>
  
  <!-- Eyes -->
  
      <ellipse cx="82" cy="90" rx="8" ry="6" fill="#fff"/>
      <ellipse cx="118" cy="90" rx="8" ry="6" fill="#fff"/>
      <circle cx="82" cy="90" r="4" fill="#4169e1"/>
      <circle cx="118" cy="90" r="4" fill="#4169e1"/>
      <circle cx="83" cy="89" r="2" fill="#fff"/>
      <circle cx="119" cy="89" r="2" fill="#fff"/>
  
  <!-- Nose & Mouth -->
  
      <ellipse cx="100" cy="108" rx="8" ry="6" fill="#e6d7c4"/>
      <path d="M90 125 Q100 132 110 125" fill="none" stroke="#d7c8b5" stroke-width="2"/>
  
  <!-- Class Elements -->
  <path d="M20 140 L25 200" stroke="#c0c0c0" stroke-width="4"/>
              <path d="M15 145 L30 135" stroke="#c0c0c0" stroke-width="3"/>
  
  <!-- Frame -->
  <rect x="5" y="5" width="190" height="190" fill="none" stroke="#c0c0c0" stroke-width="3" rx="10" opacity="0.5"/>
</svg>