<svg xmlns="http://www.w3.org/2000/svg" viewBox="0 0 200 200">
  
    <defs>
      <linearGradient id="bg" x1="0%" y1="0%" x2="100%" y2="100%">
        <stop offset="0%" style="stop-color:#228b22;stop-opacity:0.3" />
        <stop offset="100%" style="stop-color:#1a1a2e;stop-opacity:1" />
      </linearGradient>
      <linearGradient id="skin" x1="0%" y1="0%" x2="100%" y2="100%">
        <stop offset="0%" style="stop-color:#808000;stop-opacity:1" />
        <stop offset="100%" style="stop-color:#626200;stop-opacity:1" />
      </linearGradient>
      <filter id="shadow" x="-20%" y="-20%" width="140%" height="140%">
        <feDropShadow dx="2" dy="2" stdDeviation="3" flood-color="#000" flood-opacity="0.5"/>
      </filter>
      
    </defs>
  
  <!-- Background -->
  <rect width="200" height="200" fill="url(#bg)"/>
  
  <!-- Aura Effect -->
  
  
  <!-- Body/Shoulders -->
  
      <path d="M50 165 Q45 175 40 200 L160 200 Q155 175 150 165 Q125 155 100 158 Q75 155 50 165" fill="#8b4513"/>
      <path d="M60 170 L60 200" stroke="#654321" stroke-width="1"/>
      <path d="M80 168 L80 200" stroke="#654321" stroke-width="1"/>
      <path d="M120 168 L120 200" stroke="#654321" stroke-width="1"/>
      <path d="M140 170 L140 200" stroke="#654321" stroke-width="1"/>
      <path d="M70 175 Q100 170 130 175" fill="none" stroke="#654321" stroke-width="2"/>
  
  <!-- Neck -->
  <path d="M85 150 Q100 145 115 150 L115 165 Q100 160 85 165 Z" fill="url(#skin)" filter="url(#shadow)"/>
  
  <!-- Ears (behind head) -->
  
        <path d="M55 90 Q45 70 40 50 Q50 65 58 85" fill="url(#skin)" stroke="#6c6c00" stroke-width="1"/>
        <path d="M145 90 Q155 70 160 50 Q150 65 142 85" fill="url(#skin)" stroke="#6c6c00" stroke-width="1"/>
  
  <!-- Face -->
  <path d="M55 70 Q52 100 58 125 Q70 150 100 155 Q130 150 142 125 Q148 100 145 70 Q130 45 100 42 Q70 45 55 70" fill="url(#skin)" filter="url(#shadow)"/>
  
  <!-- Special Features (behind face details) -->
  
        <path d="M78 130 Q75 145 78 155" fill="#fffff0" stroke="#d4c9a8" stroke-width="2" stroke-linecap="round"/>
        <path d="M122 130 Q125 145 122 155" fill="#fffff0" stroke="#d4c9a8" stroke-width="2" stroke-linecap="round"/>
  
  <!-- Hair -->
  
    <ellipse cx="100" cy="58" rx="43" ry="25" fill="#000000"/>
    <path d="M60 75 Q55 100 50 140" stroke="#000000" stroke-width="10" fill="none"/>
    <path d="M140 75 Q145 100 150 140" stroke="#000000" stroke-width="10" fill="none"/>
    <ellipse cx="50" cy="145" rx="6" ry="8" fill="#1e1e1e"/>
    <ellipse cx="150" cy="145" rx="6" ry="8" fill="#1e1e1e"/>
  
  <!-- Eyes -->
  
      <ellipse cx="82" cy="90" rx="8" ry="6" fill="#fff"/>
      <ellipse cx="118" cy="90" rx="8" ry="6" fill="#fff"/>
      <circle cx="82" cy="90" r="4" fill="#ff0000"/>
      <circle cx="118" cy="90" r="4" fill="#ff0000"/>
      <circle cx="83" cy="89" r="2" fill="#fff"/>
      <circle cx="119" cy="89" r="2" fill="#fff"/>
  
  <!-- Nose & Mouth -->
  
      <path d="M95 98 Q100 108 105 98" fill="none" stroke="#626200" stroke-width="2"/>
      <ellipse cx="92" cy="103" rx="4" ry="3" fill="#6c6c00"/>
      <ellipse cx="108" cy="103" rx="4" ry="3" fill="#6c6c00"/>
      <path d="M85 130 Q100 138 115 130" fill="none" stroke="#585800" stroke-width="2"/>
  
  <!-- Class Elements -->
  <path d="M175 140 L185 190 M175 140 L165 190" stroke="#8b4513" stroke-width="2"/>
             <path d="M160 145 L175 140 L190 145" fill="none" stroke="#8b4513" stroke-width="3"/>
  
  <!-- Frame -->
  <rect x="5" y="5" width="190" height="190" fill="none" stroke="#8b4513" stroke-width="3" rx="10" opacity="0.5"/>
</svg>