<svg xmlns="http://www.w3.org/2000/svg" viewBox="0 0 200 200">
  
    <defs>
      <linearGradient id="bg" x1="0%" y1="0%" x2="100%" y2="100%">
        <stop offset="0%" style="stop-color:#8b0000;stop-opacity:0.3" />
        <stop offset="100%" style="stop-color:#1a1a2e;stop-opacity:1" />
      </linearGradient>
      <linearGradient id="skin" x1="0%" y1="0%" x2="100%" y2="100%">
        <stop offset="0%" style="stop-color:#4b0082;stop-opacity:1" />
        <stop offset="100%" style="stop-color:#2d0064;stop-opacity:1" />
      </linearGradient>
      <filter id="shadow" x="-20%" y="-20%" width="140%" height="140%">
        <feDropShadow dx="2" dy="2" stdDeviation="3" flood-color="#000" flood-opacity="0.5"/>
      </filter>
      
    </defs>
  
  <!-- Background -->
  <rect width="200" height="200" fill="url(#bg)"/>
  
  <!-- Aura Effect -->
  
  
  <!-- Body/Shoulders -->
  
      <path d="M50 165 Q45 175 40 200 L160 200 Q155 175 150 165 Q125 155 100 158 Q75 155 50 165" fill="#654321"/>
      <path d="M50 165 Q55 168 60 165 Q65 168 70 165 Q75 168 80 165 Q85 168 90 165 Q95 168 100 165 Q105 168 110 165 Q115 168 120 165 Q125 168 130 165 Q135 168 140 165 Q145 168 150 165" fill="none" stroke="#8b4513" stroke-width="3"/>
  
  <!-- Neck -->
  <path d="M85 150 Q100 145 115 150 L115 165 Q100 160 85 165 Z" fill="url(#skin)" filter="url(#shadow)"/>
  
  <!-- Ears (behind head) -->
  
        <path d="M55 90 Q45 70 40 50 Q50 65 58 85" fill="url(#skin)" stroke="#37006e" stroke-width="1"/>
        <path d="M145 90 Q155 70 160 50 Q150 65 142 85" fill="url(#skin)" stroke="#37006e" stroke-width="1"/>
  
  <!-- Face -->
  <ellipse cx="100" cy="95" rx="40" ry="50" fill="url(#skin)" filter="url(#shadow)"/>
  
  <!-- Special Features (behind face details) -->
  
        <path d="M70 55 Q60 35 55 15 Q65 30 75 50" fill="#2f2f2f" stroke="#1a1a1a" stroke-width="1"/>
        <path d="M130 55 Q140 35 145 15 Q135 30 125 50" fill="#2f2f2f" stroke="#1a1a1a" stroke-width="1"/>
  
  <!-- Hair -->
  
    <path d="M50 70 Q45 40 70 30 Q100 20 130 30 Q155 40 150 70" fill="#8b0000"/>
    <path d="M55 65 Q40 50 45 35" stroke="#8b0000" stroke-width="8" fill="none" stroke-linecap="round"/>
    <path d="M145 65 Q160 50 155 35" stroke="#8b0000" stroke-width="8" fill="none" stroke-linecap="round"/>
    <path d="M100 45 Q100 25 95 20" stroke="#8b0000" stroke-width="6" fill="none" stroke-linecap="round"/>
  
  <!-- Eyes -->
  
      <ellipse cx="82" cy="90" rx="8" ry="6" fill="#1a1a1a"/>
      <ellipse cx="118" cy="90" rx="8" ry="6" fill="#1a1a1a"/>
      <circle cx="82" cy="90" r="5" fill="#ff0000"/>
      <circle cx="118" cy="90" r="5" fill="#ff0000"/>
      <circle cx="82" cy="90" r="2" fill="#ff0000" opacity="0.7"/>
      <circle cx="118" cy="90" r="2" fill="#ff0000" opacity="0.7"/>
  
  <!-- Nose & Mouth -->
  
      <path d="M100 95 Q102 105 100 112" fill="none" stroke="#2d0064" stroke-width="2"/>
      <path d="M88 125 Q100 132 112 125" fill="none" stroke="#2d0064" stroke-width="2"/>
  
  <!-- Class Elements -->
  <path d="M25 130 L15 160 L30 145 L20 180" fill="none" stroke="#8b4513" stroke-width="4"/>
  
  <!-- Frame -->
  <rect x="5" y="5" width="190" height="190" fill="none" stroke="#654321" stroke-width="3" rx="10" opacity="0.5"/>
</svg>